<?xml version="1.0" encoding="UTF-8"?>
<svg id="Capa_1" data-name="Capa 1" xmlns="http://www.w3.org/2000/svg" viewBox="0 0 1080 311.62">
  <defs>
    <style>
      .cls-1 {
        fill: #161616;
      }
    </style>
  </defs>
  <g>
    <path class="cls-1" d="M586.01,233.38c-.28-.05-.42.03,0,0h0Z"/>
    <path class="cls-1" d="M805.28,233.64c.09,0,.13,0,.21,0,.16-.23.3-.42.44-.57l-.65.57Z"/>
    <path class="cls-1" d="M840.55,234.92c.08.02.14.04.22.06-.02-.14.02-.27-.22-.06Z"/>
    <path class="cls-1" d="M724,235.67c-.31-.01-.48.04-.6.11.17-.05.36-.09.6-.11Z"/>
    <path class="cls-1" d="M521.36,233.34s.09,0,.15-.02c-.12-.05-.25-.08-.38-.14l.22.16Z"/>
    <path class="cls-1" d="M522.08,232.97c.78.18-.22.32-.56.36.85.32,1.71.36,2.59.24,0-.35-1.64-.33-2.02-.59Z"/>
    <path class="cls-1" d="M404.1,232.05l.36-.13c-.15.03-.26.08-.36.13Z"/>
    <path class="cls-1" d="M727.4,252.78c-.18.03-.36.06-.53.08.28.01.43-.03.53-.08Z"/>
    <path class="cls-1" d="M422.59,232.76l.22-.55c-.19.23-.23.4-.22.55Z"/>
    <path class="cls-1" d="M805.93,233.06l.26-.22c-.09.05-.17.13-.26.22Z"/>
    <path class="cls-1" d="M873.14,235.07c.01.17.09.3.18.42.04,0,.07,0,.09,0l-.27-.42Z"/>
    <path class="cls-1" d="M1037.57,241.6c-.01-.07-.04-.14-.09-.21l-.65.41c.35-.04.59-.11.74-.19Z"/>
    <path class="cls-1" d="M917.87,237.06c.04-.06.14-.12.15-.19-.77-.18-2.78-.19-5.36-.14l-.15.68,5.36-.34Z"/>
    <path class="cls-1" d="M966.99,252.25l-4.79-1.29c15.3-.86,22.47.41,35.56-.92l-.72.31c1.91.27,2.93-2.78,24.08.56v.14c.73-.04.72-.31,2.19.03l-3.66-.77c2.18-.38,4.07-1.07,6.98-1.22.62.14.84.42.9.63l7.13-.36,2.2.84c2.17-.52,1.14-2.36,7-1.45-2.23-1.24,2.88-.83,2.15-1.48.3.15.97.38,1.51.59,3.47-.22,9.99-.72,11.6-1.42,0,0-13.63-2.44-17.31-3.74,4.89.25,1.28-.18.31-.6l-.32.33c-2.93-.25-2.95-1.07-4.42-1.26,0,.07.05.14.09.22l.18-.11c.14.14.06.24-.09.33.04.17-.09.31-.89.28l.15-.09c-1.22.15-3.33.06-4.25.02l-.03-.68c-2.14,1.34-14.61-1.7-17.52-1.69-2.94-.8-6.55.34-10.21-.03-5.82-.12-2.93-.94-5.86-1.48-3.66-.36.75.78-.71.85l-4.39-.87c2.54-.12,1.15-.51.68-.77-3.78-.05-9.76-1.2-10.9.18-5.11-.57-5.13-1.12-7.31-1.15.74.24,2.19.44,2.21.71-2.05-.57-.97.16-.14.28-3.11.64-16.2-2.23-16.83-.73v-.27c-.71,1.12.47,2.18-1.7,2.83l-1.46-.48-2.18.51c-1.47-.34-.75-.65-.76-.78-3.55.56-8.53.01-12.84-.08l4.61,2.97c-3.65-.65-10.23-1.98-10.94-1l-2.2-.99c-7.32-1.86-5.08.9-8,.35l-3.68-1.07,3.65-.02c-3.65-.52-5.11-.87-8.03-1.55l-.03.03c.2.04.33.1.36.16l-.51.03c-.44.56-2.33.96-4.9.95-3.65-.12-6.49.72-12.33-.39l-1.44,1.15-4.38-.63v-.9c4.28.01,12.33-.41,17.84-.51l.09-.41c-3.26.04-6.97.47-9.13.4-1.05-.17-3.75-1.08-1.81-1.71l-2.01.9c-10.89.2-10.97.25-22.34-.68l.99.45c-2.25.28-4.5.56-5.13-.17-6.83-.09-13.91-.61-18.34-1.74l-.96,1.07c-1.44-.05-3.61-1.64-4.31-.15l-3.08.49c-1.97-.07-3.18.54-5.42-.05h0s-.01,0-.01,0c-.14-.04-.28-.08-.42-.12,0,.03.01.06.03.09-4.46-.45.05.96-5.06.37-1.64-.75-1.81,1.36-4.3,1.12l-2.51-1.52c-4.51-.86-5.28.67-11.81.7-3.14-.53-4.66-1.83-2.58-2.99-2.85,1.41-1.3.92-5.08,1.6-.58-.57-.18-.7.65-1.21-3.37-.67-2.07.52-4.61.49-.73,1.08-1.58,2.81-2.41,2.88l.98.34c-2.69.58-5.62.86-8.75.32l.12-.54-3.33.28-.21-.7-4.75.22.65.19c-1.11.09-4.78.33-6.87-.03l.08-.39c-5.91-1.21-10.77.37-17.69.5l.91-.79c-2.35-.79-.65,1.22-3.45.82l-.14-.97c-2.47,1.27-3.2-.28-4.9-.76l.79,1.27-3.21-.27c-3.53-.43-2.16-1.61-1.65-2.28l-2.41,1-.47-1.12c-1.76,1.3-1.76-.21-4.84.48-.25-.42.53-.67-.52-.85l-5.08,1.57,3.06-.7-.38,1.64c-3.19,1.24-4.32-.19-6.6.26l1.57-.48c-3.72.38-3.92-.32-6.01-.69.65.31,1.64.76.14.97-1.11.09-.6-.58-1.64-.76-.25,1.09-2.92,1.66-5.34,1.14.03-.16.08-.31.24-.4-.62.17-.94.45-2.01.19l.64-1.21-2.07,1.15c-1.38-.34-3.39.54-3.21-.28l.78-.24-10.44-.34-.14-.97c-1.04,1.33-5.68-.54-5.35,1.13-1.96-.92-7.76.6-6.59-1.28-6.86-.18-10.58,1.6-18.91.62-2.96-1.63-11.1-1.15-16.45-1.39-10.47.47-17.23.94-27.93,1.24-6.41-2.35-16.05.46-22.96-.93l-1.91.85c-4.58-1.5-11.63.09-18.06-1.41-1.59.36-2.42.46-2.79.49.29.05.73.22.87.79-1.84-.43-5.57,0-5.29-1.12l.47-.11c.29-1.12-5.6.42-7.64-.59l1.11,1.22-3.49-.27.94-.21c-15.21,2.38-21.99-1.57-36.28.6,1.91-1.28-2.82.64-2.98-.8-3.56-1.87-6.66.26-9.61.69,0,.07-.04.15-.21.26l-5.14-.27c3.11-1.75-3.74,1.43-.88-.06-13.39-1.61-30.94-.57-46.46-1.49l.67.48c-3.94-.16-8.85.31-11.82-.5-2.97-.8-6.57,1.06-7.73,1.11-3.3.74-6.24-.91-4.83-.8-3.51.16-6.85,1.75-11.69.94-1.62-1.57-13.31,1.25-13.41-.48l-.06.14c-6.19-1.34-12.13.62-18.8-.61,0,0,.13-.12.36-.24l-13.81,4.99,3.72,5.86,11.71,4.92,32.13-.4,25.58,2.33,62.37.58,4.48-1.22c12.21,2.52,27.97.19,41.14,2.08l.29-1.12c3.72,0,3.46.7,4.37.91,17.31.21,34.88.11,52.01.21,17.13.09,33.82.47,49.39,1.22,3,.77,12.14.4,14.49,1.19,10.13-1.32,20.84-1.23,30.97-1.06l-.38.12,4.77-.2c.2.09.23.23.07.31,5.39-.97,13.86.04,20.45.45l-.39.12c38.46.28,74.15-1.89,112.29-.56,17.74,1.72,38.35-.98,58.71.32,3.75,1.09,44.9-.26,48.52-.87Z"/>
    <path class="cls-1" d="M1027.53,249.71h-.16c.02.48.25.3.16,0Z"/>
    <polygon class="cls-1" points="942.38 238.14 942.64 238.15 941.63 237.5 942.38 238.14"/>
    <path class="cls-1" d="M996.76,236.94c-2.45-.11-2.56,0-2.21.19.88.01,1.66-.04,2.21-.19Z"/>
    <path class="cls-1" d="M1047.5,248.41c1.29.01.79-.26.03-.56-1.31.08-2.22.13-2.22.13.72.1,1.45.33,2.19.43Z"/>
    <path class="cls-1" d="M1042.12,242.09l.39-.39c-.75.11-.72.25-.39.39Z"/>
  </g>
  <g>
    <path class="cls-1" d="M762.19,71.93c-.1,4.5-1.9,7.87-4.42,10.94-2.48,3.02-5.44,4.93-9.57,4.29-.53-.08-1.1-.06-1.64.02-3.46.55-6.02-1.31-8.58-3.17-.19-.14-.32-.38-.52-.5-5.55-3.38-6.46-8.97-6.34-14.63.08-3.89,1.97-8.53,6.85-9.99,2.41-.72,4.63-2.24,7.07-2.73,3.88-.78,7.54.02,10.39,3.12.78.85,1.63,1.63,2.47,2.42,3.06,2.89,3.97,6.65,4.29,10.23ZM745.18,67.35c.08.04.15.08.23.12,1.11-1.42,2.23-2.82,3.31-4.25.83-1.1,1.93-1.48,2.99-.64,1.03.82.52,1.95-.05,2.91-1.21,2.02-2.46,4.02-3.67,6.05-.26.43-.88,1.03-.25,1.4.59.36.84-.41,1.13-.86,1.53-2.33,3.05-4.66,4.84-6.8.85-1.02.77-2.06-.24-2.86-1.09-.86-2.26-1.63-3.47-2.3-.79-.44-1.42.09-1.77.79-1.05,2.14-2.04,4.3-3.06,6.46ZM743.78,61.36c-.12-.1-.24-.19-.36-.29-.88.66-1.67,1.37-1.3,2.77.55-.83,1.11-1.65,1.66-2.48Z"/>
    <path class="cls-1" d="M478.34,148.83c-.15,2.92-.33,5.83-.52,8.69.6-2.86.44-5.81.52-8.69Z"/>
    <path class="cls-1" d="M478.41,147.47c-.03.45-.05.91-.07,1.36.02-.45.04-.91.07-1.36Z"/>
    <path class="cls-1" d="M478.41,147.47c-.33-1.87-.47-2.63-.75-3.75-1.26-4.93-3.27-8.45-4.04-10.15-4.83-10.75-8.4-15.55-11.71-19.17-8.89-9.73-20.88-12.15-28.92-13.77-7.94-1.6-24.77-4.99-40.77,4.16-10.37,5.93-16.32,14.68-19.53,19.73-2.63,4.13-4.97,7.86-6.49,13.46-1.42,5.23-1.36,9.19-1.18,15.99.24,9.52.39,15.3,2.91,22.57.82,2.38,3.5,9.54,9.75,16.91,1.93,2.28,10.47,11.97,25.55,16.97,2.8.93,12.08,3.77,24.26,2.7,4.17-.37,15.44-1.79,27.14-9.05,3.48-2.16,8.35-5.67,12.96-10.88.24-.27,4.36-4.97,6.78-9.88,1.11-2.27.58-1.96,2.12-5.39.6-1.33.99-2.06.65-2.61-.47-.79-1.95-.46-4.25-.49-2.03-.02-1.6-.29-6.62-.98-2.44-.34-4.2-.5-6.84-.75-7.01-.66-6.01-.23-7.13-.56-.92-.27-1.95-.66-2.86-.16-1.11.61-1.31,2.15-1.39,2.53-.69,3.56-9.79,10.36-20.34,11.68-1.51.19-12.66,1.41-22.22-5.9-5.91-4.52-10.97-12.1-9.14-14.76.76-1.1,2.13-.53,12.83-.19.6.02,6.07.18,12.17.15,3.53-.02,6.02-.1,7.57-.15,2.55-.07,24.79-.72,36.82-.03,3.22.19,6.47-.23,9.69.05,3.35.29,3.79.11,4.35-.33,1.42-1.12,1.21-3.48-1.36-17.92ZM372.6,163.15c-1.3-.19-1.04-1.66-1.62-2.49-.16-.24-.06-.67.52-.79.71.47,1.48,1.02,1.69,2.01.12.53.04,1.36-.6,1.27ZM457.37,191.65c.67-1.02,1.34-2.05,2.14-2.97.28-.32.95-.41.98.61-.57,1.07-1.34,2.17-2.39,3.05-.12.1-.5.12-.55.04-.13-.21-.28-.58-.18-.73ZM435.16,106.06c.39.22.77.4.56.9-.16.41-.5.7-.97.59-1.04-.24-1.93-.94-3.17-.49-.98.36-1.45,1.53-2.85,1.46,1.51-3.49,3.37-4.16,6.42-2.47ZM402.34,107.76c.93-.62,1.9-.58,2.92-.22-.28,1.33-1.57,1.17-2.38,1.68-.34.21-.64-.09-.81-.41-.24-.43-.12-.79.28-1.05ZM401.13,151.26c-3.43,2.24-4.74,7.03-9.3,7.87,2.91-2.87,5.35-6.27,9.3-7.87ZM389.57,111.5c1.1-.49,2.27-.8,3.41-1.19.05.11.11.21.16.32-.9.72-1.77,1.47-2.69,2.15-.66.49-1.58.68-1.98-.06-.32-.6.61-1,1.1-1.21ZM383.96,114.79c-.51,1.78-.68,1.95-2.7,2.76.56-1.57,1.41-2.31,2.7-2.76ZM379.87,167.81c1.31-1.51,2.68-2.97,4.05-4.43.32-.34.73-.68,1.17-.82.55-.18,1.33-.55,1.72.05.4.62-.44.87-.79,1.25-1.57,1.74-3.14,3.48-4.73,5.2-.7.76-1.47,1.44-2.77,1.71.12-1.34.69-2.2,1.35-2.97ZM415.64,203.65c1.04.08.73,1.4,1.04,2.16.24.58-.08,1.07-.92,1.07-.75-.16-1.57-.38-1.54-1.46.03-.93.72-1.83,1.42-1.77ZM410.09,187.1c.1-.16.54-.28.72-.19.38.19.29.58.11.89-.89,1.56-2.16,2.75-3.66,3.74.23-1.99,1.94-2.94,2.83-4.45ZM447.19,142.83c-1.23,2.23-6.43.28-18.33.1-2.83-.04-1.79.08-9.32.13-5.1.04-7.32,0-13.08.06-3.95.04-5.92.07-6.21.1-2.62.28-3.58.71-4.17.1-1.12-1.16.59-4.58,1.65-6.79.95-1.97,1.93-3.31,2.2-3.66.53-.71,2.55-3.32,6.14-5.61,3.94-2.51,7.59-3.23,9.7-3.63,6.94-1.31,12.5.08,14.37.61,3.16.9,7.75,2.19,11.42,6.28,1.99,2.21,3.1,4.56,3.78,6.01,1.64,3.47,2.45,5.2,1.84,6.3ZM454.2,161.1c-.46.8-1.35.61-2,.13-1.02-.76.18-.92.44-1.31.53-.8,1.13-1.54,1.68-2.32.17-.24.32-.46.64-.39.47.1.36.5.4.83-.37,1.02-.62,2.13-1.16,3.06Z"/>
    <path class="cls-1" d="M601.2,99.98c-.75-.97-2.46-.37-5.47-.13-4.21.34-4.25-.55-9.82-.28-1.61.08-1.01.12-4.89.41-3.55.27-4.05.23-4.82.65-1.12.62-1.91,1.72-3.13,5.6-1.98,6.32-1.4,8.21-2.47,8.6-2.5.89-4.89-8.04-13.8-11.85-.25-.11-2.82-.94-7.94-2.6-6.5-2.11-7.15-2.27-7.84-2.42-4.02-.85-7.1-.68-11.17-.45-3.21.18-7.2.41-12.24,1.82-2.57.72-7.42,2.31-12.77,5.67-1.29.81-7.58,4.85-13.69,12.83,0,0-8.61,11.37-11.35,27.88-.7,4.24-.8,7.92-.82,8.5-.11,4.64.36,8.06.8,11.18,1.6,11.36,4.65,15.81,5.36,17.24h0c6.38,10.33,11.13,18.03,21.45,23.98,16.17,9.34,33.63,7.23,42.82,3.91,5.04-1.82,9.8-3.54,13.98-8.04,2.78-2.99,5.15-7.05,6.06-6.61.32.15.22.74.14,3.86-.04,1.72-.04,3.45-.06,5.17-.04,2.52.02,3.22.04,5.69.02,3.68-.1,5.48-.17,8.45-.12,4.89.08,4.68.09,12.37,0,5.74-.1,6.67-.11,13.96,0,4.03,0,6.05.03,6.73,0,0,.17,3.17.07,4.75-.03.52,0,1.05-.07,1.57-.07.53-.15.74-.02.92.25.33.93.15,1.66.06.71-.09.38.04,2.97.08,1.51.03,1.9-.01,3.39-.02,3.08,0,3.59.15,6.54.15,1.71,0,1.6-.06,3.1-.07,6.56-.04,9.83-.06,11.62.14.52.06,1.75.21,2.27-.46.41-.53.17-1.32.14-1.55-.43-3.85.24-7.75.02-11.62,0,0-.36-6.4-.5-13.44-.04-1.91.24-3.78.02-10.93-.17-5.64.23-11.3.24-16.97.03-19.76.52-20.41.52-27.33,0-6.65-.12-6.13-.27-17.33-.22-16.85-.13-32.96-.02-40.64.08-5.6-1.64-11.49.13-16.8.15-.44.63-1.79,0-2.6ZM565.74,130.31c-.11.93-.04,1.94-1.26,2-.47.02-.79-.34-.77-.79.05-1.32,1.25-.93,2.03-1.21ZM551.96,105.61c.42-.61.98-.7,1.64-.55.51.11.94.37,1.08.86.24.84-.52,1.07-1.01,1.35-2.52,1.44-4.36,3.82-7.1,5.01,1.95-2.1,3.76-4.31,5.39-6.66ZM544.05,104.22c-.12-.58-.01-1.14.87-1,.47.27,1.48.19,1.36.93-.12.76-.78,1.58-1.68,1.55-.95-.03-.44-.96-.55-1.48ZM506.93,118.66c.16-.17.54-.2.72.11.25.42.07.87-.22,1.12-1.09.93-2.23,1.79-3.35,2.68.05-1.99,1.73-2.72,2.86-3.9ZM486.61,164.49c-.47-.18-.36-.68-.45-1.06-.16-.69.2-1,.83-1.14.57-.13,1.14-.3,1.76-.47.06.93-.48,1.42-.81,1.99-.27.47-.69.92-1.34.68ZM506.14,181c-.13-1.04.71-1.18,1.15-1.61,1.34-1.29,2.66-2.6,4.01-3.87.38-.36.83-1.02,1.37-.58.57.45.94,1.17,1.35,1.8.05.08-.16.49-.24.48-3.1-.02-4.71,2.92-7.64,3.79ZM504.35,189.94c.25-.86.28-2.22,1.38-2.1.71.08,1.84,1.27,1.82,1.92-.04,1.26-1.72.5-2.14,1.2-1.08.08-1.23-.41-1.06-1.02ZM545.82,198.88c-1.04-.03-1.86.74-2.98.87,1.73-1.22,2.97-3.13,5.15-3.85.5,2.07-.12,3.05-2.17,2.99ZM555.09,181.48c-8.4,4.96-19.55,4.54-28.21,0-10.66-5.6-15.92-16.61-16.34-26.2-.1-2.35-.51-11.77,5.86-18.8,2.76-3.05,5.72-4.47,9.25-6.17,3.71-1.78,9.89-4.66,17.88-3.85,1.22.12,5.33.62,10.05,2.91,1.38.67,3.95,1.93,6.67,4.4,1,.91,3.92,3.69,6.05,8.11,3.77,7.83,2.45,15.4,1.74,19.45-.57,3.28-1.32,7.29-4.16,11.68-.64.99-3.59,5.41-8.79,8.48ZM567.06,190.25c-1.23,1.1-2.43,2.23-3.66,3.33-1.36,1.21-2.83,2.14-5.05,1.88.45-1.6,1.74-2.29,2.8-3.03,1.64-1.14,3.21-2.35,4.75-3.61.6-.5,1.44-1.31,2.08-.53.67.82-.33,1.43-.93,1.97ZM574.4,116.68c.25-.36.6.04.8.33.28.4.66,1.11.16,1.24-1.36.34-1.94,1.93-3.53,2.03.02-1.89,1.76-2.42,2.58-3.59ZM589.49,254.4c-.8.95-1.41,2.24-3.09,2,.45-1.19,1.33-1.97,2.13-2.79.24-.25.61-.39.93-.14.32.26.24.69.03.93ZM593.78,243.42c-.33,1.39.21,3.28-1.86,3.89-.82.24-1.58.66-2.62,1.1.72-2.3,2.67-3.41,3.48-5.28.13-.31,1.16-.41.99.29ZM593.7,235.26c-.87.81-1.79,1.59-3.14,2.77.3-2.11,1.88-2.58,2.38-3.81.11-.27.61-.32.89-.03.36.38.16.79-.14,1.07ZM594.38,209.19c0,.59-.26,1.08-.69,1.45-1.56,1.33-3.14,2.64-4.71,3.96-.14-.12-.29-.24-.43-.35,2-1.52,3.13-3.73,4.73-5.56.23-.26.41-.61.82-.41.37.18.29.58.29.91ZM594.5,173.74c-2.24.52-3.58,2.51-5.68,3.19,1.1-2.44,3.24-3.84,4.93-5.66.29-.32.7-.24.8.15.21.79.44,2.2-.05,2.31ZM596.39,120.39c-2.58,1.44-4.53,3.65-6.72,5.56-.58.5-.83,1.48-2.25,1.22,1.2-1.33,2.06-2.73,3.3-3.58,1.85-1.27,3.29-2.91,4.85-4.44.38-.37.69-.96,1.35-.78.45.12.57.54.57.99,0,.73-.62.76-1.09,1.02Z"/>
    <path class="cls-1" d="M892.46,171.65c-1.45,5.74-6.24,24.75-23.16,34.73-6.59,3.89-12.62,4.99-17.43,5.86,0,0-20.73,3.77-37.39-5.4-1.84-1.01-4.6-2.54-7-5.6-2.73-3.5-3.42-7-3.9-6.87-.54.15.51,4.37.75,10.69.1,2.73,0,4.52-.1,7.04-.53,12.68-.69,29.91-.31,35.93.02.32.08,2.1.21,5.66.05,1.32-.21,2.65-.05,3.97.09.69.22,1.34-.16,1.74-.43.45-1.24.29-1.93.19-1.45-.22-2.95.02-4.41-.12-.25-.03-2.79-.06-7.89-.12-3.88-.05-5.84-.08-6.83-.06-2.13.03-2.8.08-4.78.06-1.55-.02-2.03-.06-3.23,0-1.6.08-1.74.21-2.05.06-1.49-.71-.76-4.9-.42-8.38.36-3.66-.07-7.37.06-11.05.08-2.2,0-.86.14-35.33.06-14.24.09-21.45.14-25.98.06-5.08.1-6.75.3-21.57.14-10.18.21-15.27.21-15.92.01-16.73.02-27.26-.66-32.03-.27-1.92-.07-3.88-.2-5.81-.11-1.68-.24-2.97.54-3.57.37-.29,1.08-.26,2.49-.2,2.1.09,3.15.13,3.17.13,2.2.23,4.41.21,7.07.18,6.41-.06,9.61-.09,10.62-.35.4-.1,1.54-.42,2.3.17.54.42.65,1.1.71,1.45.28,1.71.87,3.37,1.07,5.09.03.22.47,3.76,1.72,7.61.82,2.5,1.17,2.65,1.35,2.69,1.49.35,2.83-4.16,6.67-8.07,2.38-2.42,4.67-3.56,7.6-5,6.33-3.12,21.88-8.32,39.19-3,6.81,2.09,11.78,5.16,14.2,6.8,0,0,5.62,3.8,10.2,9,8.66,9.82,17.1,31.96,11.2,55.39ZM835.75,184.25c3.27-.25,9.95-.86,16.21-5.7,5.11-3.95,7.51-8.85,8.5-11.31,5.05-12.5.29-28.24-9.3-35.32-3.5-2.58-7.45-3.86-8.2-4.1-1.18-.37-6.64-2.01-13.51-1-2.5.37-13.07,1.93-20.01,11.41-7.72,10.54-4.83,22.5-4.3,24.71.58,2.41,2.59,10.73,9.9,16.01,3.31,2.39,6.72,3.44,8.6,4,2.45.73,6.76,1.71,12.11,1.3ZM878.38,185.39c-4.48,5.61-8.13,11.82-12.82,17.28,6.59-3.96,11.38-10.42,12.82-17.28ZM787.67,125.76c-1.41.5-1.85,1.2-2.38,1.79-2,2.26-3.45,5.13-5.57,7.07-2.05,1.87-1.66,3.41-1.11,5.53,2.92-4.63,5.83-9.26,9.06-14.39ZM781.49,244.72c.07.42.2,1.3.39,2.17.09.42-.06,1.07.61,1.14.53.05.87-.33,1.11-.78.47-.91.91-1.84,1.42-2.73.85-1.49-.47-2.24-1.06-3.24-.24-.41-.6-.87-1.15-.48-.88.64-1.3,1.57-1.37,2.64-.02.27.02.55.05,1.28ZM880.49,165.93c3.9-2.27,6.49-4.62,5.13-8.56-1.92,2.65-3.27,5.42-5.13,8.56ZM777.17,112.15c.12.04.25.09.37.13,1.27-1.6,2.54-3.2,3.8-4.82.31-.4.82-.92.03-1.29-1.07-.5-3.76.98-3.91,2.16-.17,1.27-.2,2.55-.29,3.82ZM821.71,188.5c.92-.3,2-.51,2.17-1.43.22-1.19-1.06-.66-1.62-.96-.65-.35-1.39-.55-2.09-.81-.43-.16-.95-.51-1.25.08-.15.31-.13.86.05,1.16.64,1.03,1.77,1.41,2.73,1.96ZM794.66,143.98c.15.14.31.28.46.41,1.59-1.68,3.2-3.35,4.76-5.06.32-.35.58-.89.12-1.29-.48-.42-.95-.03-1.27.3-1.64,1.68-2.79,3.71-4.08,5.63ZM865.98,126.79c1.02,0,4-3.81,3.69-4.7-.28-.79-.92-.69-1.22-.16-.76,1.4-1.81,2.57-2.78,3.81-.29.37-.4.92.31,1.04ZM800.63,176.65c-.18-.11-.37-.22-.55-.33-1.39,1.62-2.78,3.23-4.18,4.85.15.13.31.26.46.39.88-2.11,4.33-1.97,4.27-4.91ZM785.59,185.47c-1.53,1.03-2.49,1.83-3.24,2.85-.28.37-.52.97,0,1.29.52.33.92-.16,1.17-.56.62-.99,1.17-2.01,2.07-3.57ZM822.3,112.86c1.33-.78,1.85-1.87,2.65-2.66.28-.27.63-.69.27-1.07-.42-.43-.95-.14-1.29.18-.93.86-1.27,2.02-1.62,3.55ZM877.9,140.03c.7-.84,1.97-1.22,2.01-2.56.01-.34-.36-.46-.6-.37-1.24.5-1.46,1.62-1.42,2.93Z"/>
    <path class="cls-1" d="M54.92,121.99c-4.39,3.23-6.85,7.39-8.3,9.84-2.21,3.75-3.33,7.11-3.88,9.05-.45,1.59-1.12,4.37-1.42,12.69-.23,6.36.06,7.63,0,16.4-.04,6.83-.22,6.03-.23,12.1-.02,9.01-.03,13.51.23,16.6.6,7.09,1.58,9.87-.27,11.57-1.06.97-1.87.52-7.74.73-7.02.26-9.5,1.03-11.06-.68-1.06-1.16-1.05-2.75-1.05-3.42.09-24.14-.91-48.32.2-72.43.43-9.43-.03-6.78.61-31.69.42-16.43.68-19.52.24-25.53-.33-4.52-.94-9.58-.45-14.27.36-3.44,1.03-4.93.3-7.5-.27-.97-.84-2.42-.19-3.06.33-.33.8-.28,2.14-.27,1.05,0,2.1-.09,3.15-.05,2.49.08,1.93-.04,5.28.03,5.97.12,5.52.46,6.72.16.91-.22,2.18-.66,2.72-.08.31.34.25.86.23,1.05-.27,2.43.38,4.94-.06,7.34-.77,4.22.36,7.8-.23,25.33-.17,4.87.22,9.78-.36,14.62-.03.22-.14,1.1-.02,2.27.12,1.09.38,1.87.43,2.02.92,2.9-1.24,17.93-.39,18.17.51.15,1.36-5.3,5.38-10.68,3.79-5.08,8.61-7.79,10.99-8.93,2.24-1.08,3.99-1.59,6.05-2.18,1.82-.52,7.2-1.96,14.53-2.02,2.2-.02,7.33-.04,12.79,1.29,2.69.65,16.04,4.21,24.36,16.19,5.25,7.57,5.95,14.96,7.35,29.74.38,4.04.41,9.96.48,21.82.06,10.17-.11,20.12,0,28.17.05,3.24-.21,6.49.13,9.71.13,1.27-.19,2.58.04,3.83.05.25.15.75-.12,1.08-.37.45-1.2.32-1.71.25-1.35-.17-2.73.04-4.08-.04-2.13-.13-1.73.06-4.58-.04-3.74-.13-3.54-.42-5.28-.3-2.71.19-3.73.94-4.51.27-.79-.68-.53-2.11-.36-3.34.39-2.95-.19-5.97.03-8.94.44-6.03-.33-6.76-.3-17.73.01-4.6.15-4.11.3-11.37.3-13.86-.07-20.71-.54-25.82-.73-7.98-1.53-10.14-2.06-11.39-.96-2.25-3.64-7.64-9.56-11.49-6.2-4.03-12.33-4.02-17.18-4-4.74.01-12.09.03-18.73,4.91ZM40.98,131.76c-1.25-.17-1.62.56-2.12,1.11-2.37,2.58-4.45,5.51-6.98,7.82-2.49,2.28-4.27,5.14-6.85,7.26-.71.58-.93,1.39-.88,2.03,1.53-1.36,3.14-2.71,4.65-4.15,2.48-2.37,4.9-4.81,7.36-7.19,2.01-1.95,3.87-4,4.82-6.88ZM82.66,107.93c-.55.03-.83.23-.94.58-.15.48.13.71.54.95,1.84,1.07,3.73,2.08,5.39,3.43.32.26.66.59,1.08.23.44-.37.27-.82.14-1.31-.92-3.31-4.56-2.09-6.21-3.88ZM34.61,158.72c-.07-.39.06-.86-.34-1.13-.26-.18-.51-.04-.72.17-1.86,1.82-3.72,3.63-5.57,5.46-.25.24-.53.58-.32.89.29.44.76.26,1.08-.01,1.75-1.5,4.06-2.29,5.45-4.27.25-.35.49-.65.43-1.1ZM57.23,110.34c-.13-.14-.27-.28-.4-.41-1.47.56-2.56,1.74-3.81,2.64-.61.44-.23,1.12.22,1.62.46.52.96.6,1.38.01.9-1.27,1.74-2.58,2.61-3.87ZM26.71,189.53c.99-.6,2.04-1.24,2.81-2.21.35-.43.62-1.05.16-1.49-.63-.61-1.09,0-1.51.43-.66.68-1.39,1.32-1.97,2.07-.31.4-.49,1.06.51,1.2ZM27.28,103.03c2.12-1.17,3.64-2.9,4.96-4.84-2.43.82-3.69,2.85-4.96,4.84ZM116.27,171.52c2.54-.7,4.28-2.87,4.06-5.11-1.4,1.76-2.63,3.31-4.06,5.11ZM121.57,134.71c-.13-.57.12-1.67-.78-1.53-.94.14-1.02,1.37-1.26,2.19-.19.65.35,1,.99,1.01,1.17.02,1.03-.86,1.06-1.67ZM116.09,163.39c2.58-1.12,4.34-3.43,3.95-5.11-.3,2.33-2.65,2.99-3.95,5.11ZM106.36,190.55c.38,1.52-.52,2.71.26,3.93,1.67-1.98,1.68-2.64-.26-3.93ZM34.33,68.95c.04.53.18,1.16.82,1.18.84.02.86-.71.8-1.34-.07-.58-.04-1.44-.85-1.37-.72.06-.69.88-.76,1.52ZM108.75,173.7c-.86.2-.77.96-.86,1.61-.05.44.08,1.01.54.91.82-.19,1.06-.98,1.12-1.75.04-.48-.25-.75-.8-.77Z"/>
    <path class="cls-1" d="M1011.83,171.57c-1.22,4.75-3.33,12.58-9.62,19.81-.68.78-3.05,3.56-7.79,7.21-5.16,3.97-17.06,12.9-34.71,14.91-4.36.5-12.46,1.34-22.26-1.52-7.12-2.08-11.99-5.19-15.15-7.24-5.03-3.27-13.69-8.9-19.75-19.26-9.55-16.32-6.59-34.01-4.92-43.98.8-4.8,2-8.34,2.36-9.4,3.11-9.27,8.46-15.79,8.46-15.79,0,0,8.86-10.87,24.47-14.74,1.26-.31,4.53-.75,8.25-1.68,2.97-.74,5.38-.93,8.37-1.16,4.8-.37,8.48-.06,10.72.14,3.7.33,8.61,1.05,14.27,2.71,5.07,1.66,8.93,3.73,11.55,5.35,1.22.76,3.25,2.09,5.58,3.99,1.91,1.56,3.63,3.2,5.42,5.07,3.21,3.36,9.29,9.84,13.22,20.02,6.29,16.27,2.77,30.78,1.54,35.58ZM925.7,157.45c.09,1.91.33,5.38,2.02,9.31.55,1.29,1.23,2.54,2.04,3.76,0,0,2.21,3.59,4.71,6.29,4.65,5.01,23.08,12.32,36.21,3.6,4.31-2.87,6.88-6.69,8.08-8.46,1.74-2.58,4.74-7.17,5.38-13.85.74-7.74-2.14-13.56-3.27-15.77-.68-1.34-3.21-6.02-8.46-10.19-2.08-1.65-5.77-4.51-11.35-5.77-6.42-1.45-11.65.08-15.19,1.15-4.25,1.29-10.07,3.06-14.62,8.46-6.23,7.4-5.79,16.54-5.56,21.46ZM928.14,109.9c-4.48,3.41-5.99,8.78-8.59,13.45,3.2-4.25,6.31-8.55,8.59-13.45ZM991.32,134.32c2.97-1.31,4.61-3.36,6.48-5.11.47-.44.7-1.12.05-1.61-.55-.41-1.04-.03-1.4.43-1.53,1.98-3.5,3.61-5.13,6.29ZM967.29,205.07c-2.57,1.41-4.49,3.5-6.66,6.02,4.03-.52,5.36-3.25,6.66-6.02ZM915.11,172.96q-4.18,2.56-2.09,5.29c0-1.98,1.26-3.23,2.09-5.29ZM1001.46,176.12c-1.67.55-1.98,1.87-2.7,2.79-.36.47-1.31,1.02-.21,1.56.77.38,1.62.27,1.92-.83.29-1.09.61-2.18.99-3.53ZM973.67,106.82c-.1-.4-.13-.66-.5-.69-.47-.03-2.76,2.14-2.73,2.62.02.34.36.56.54.42.94-.76,1.83-1.58,2.69-2.35Z"/>
    <path class="cls-1" d="M229.2,185.84c-1.74-.99-7.74,15.28-22.53,22.65-8.79,4.38-17.9,4.23-23.53,4.13-4.37-.07-11.26-.25-19.42-3.42-3.55-1.38-15.44-6.47-23.75-19.12-4.97-7.55-6.51-14.52-7.76-20.23-1.03-4.65-2.37-11-1.43-19.21.74-6.47,2.56-11.01,4.61-16.16,2.3-5.77,4.14-12.73,10.52-18.75,3.91-3.69,8.07-7.05,12.24-10.41,3.02-2.43,6.9-3.21,10.55-4.2,1.62-.44,4.57-1.37,8.28-1.96,10.41-1.63,19.11.32,23.32,1.54,2.71.78,5.83,1.68,9.6,3.79,8.09,4.54,13.35,11.41,13.83,12.04,2.43,3.23,3.99,6.27,4.94,5.92.56-.2.44-1.43.58-4.33.2-4.16.52-3.24.95-8.86.44-5.7.14-7.06,1.3-7.86.63-.43,2.13-.33,5.14-.13,2.87.19,2.91.42,4.66.37,1.23-.04,1.96-.17,4.17-.25,1.47-.05,2.21-.07,2.45.05,1.72.88.89,5.12.5,9.89-.2,2.42-.09,6.81.12,15.59.15,6.13.36,6.05.42,10.36.09,6.89-.38,11.71-.67,15.29-1.06,13.27-1.41,32.89-.12,41.8,0,0,.94,6.54.72,11.1-.04.9-.18,1.85-.16,3.66.01,1.63.13,1.83-.08,2.16-.75,1.17-3.19.14-7.72-.04-2.63-.11-6.15.07-7.8.15-2.59.13-3.33.24-4.09-.33-1.16-.88-1.17-2.5-1.12-6.72.07-5.92.1-8.88.22-9.97.66-6.29,1.7-8.2,1.08-8.55ZM151.81,147.54c-.63,2.68-4.33,19.78,7.11,33.64,12.82,15.53,33.31,13.25,36.69,12.87,3.36-.37,9.66-1.15,16.14-5.42,11.44-7.54,14.33-19.97,15.01-22.92.4-1.72,1.56-7.23.68-14.34-.31-2.52-.97-7.48-3.84-13.09-5.63-11.02-15.29-15.81-18.22-17.21-1.89-.9-3.45-1.46-4.19-1.71-8.49-2.9-15.69-2.02-17.67-1.73-2.16.31-8.57,1.44-15.24,5.87-12.6,8.37-15.95,21.77-16.48,24.04ZM235.11,167.96c6.32-4.39,7.55-5.93,6.81-8.6-2.32,2.9-4.96,5.42-6.81,8.6ZM174.49,205.15c2.29-2.13,3.66-4.57,5.79-6.36.4-.33.4-.91.04-1.32-.48-.56-1.18-.37-1.8-.31-.5.04-.77.35-.69.85.36,2.11-1.38,3.3-2.27,4.85-.36.63-.99,1.12-1.07,2.3ZM240.68,139.21c.96-1.07,1.88-2.17,2.89-3.19.88-.89,1.42-1.87,1.38-3.11,0-.25-.07-.61-.25-.73-.15-.1-.66,0-.73.14-1.14,2.25-3.27,4.03-3.3,6.89ZM144.12,182.39c.15.11.31.22.46.33,1.68-2.08,3.37-4.15,5.01-6.26.27-.35.06-.8-.33-1.07-.45-.32-.84-.15-1.07.23-1.37,2.25-2.72,4.51-4.07,6.77ZM200.48,194.69c-.79.07-.93.81-1.36,1.21-.61.56-1.56,1.38-1.22,1.97.52.9,1.44-.13,2.21-.23.28-.04.57-.05.83-.16.54-.22,1.58-.17,1.35-.94-.23-.78-.87-1.55-1.81-1.86ZM150.86,123.91c-.09-.06-.17-.13-.26-.19-.76.78-1.54,1.54-2.28,2.34-.25.26-.34.66-.01.9.36.26.66-.04.84-.31.59-.9,1.14-1.82,1.71-2.73ZM201.68,112.66c-.64.11-1.03.49-.94,1.11.13.87.96.86,1.62.99.58.12.72-.27.64-.73-.13-.72-.51-1.24-1.32-1.36ZM237.57,188.24c.73-.23.9-.81.84-1.46-.04-.43.08-1.18-.6-1.09-.7.08-.93.81-.96,1.45-.02.47.05.98.73,1.11Z"/>
    <path class="cls-1" d="M614.54,184.85c-2.28-5.74-2.98-10.54-3.37-13.32-.89-6.35-.25-8.57-.18-19.18.05-7.37-.21-13.31-.48-19.38,0,0,0,0,0,0,0-6.59.18-9.81.05-20.16-.09-6.84-.13-10.27-.19-10.49-.12-.45-.59-2.06.07-2.58.36-.29.9-.11,1.43,0,1.49.32,2.11-.02,4.09-.14,2.79-.17,7.45.15,11.62.22,9.09.14,13.53-.95,14.4.99.12.26.08,1.16,0,2.96-.09,2.17-.27,3.78-.27,3.83-.32,2.97-.66,8.1-.71,11.72-.04,3.26.25,2.45.53,9.06.21,4.95.19,8.83.18,11.37-.03,4.71-.16,5.56-.19,8.74-.07,6.1-.12,11.45,1.08,17.55,1.3,6.6,2.12,10.75,5.7,14.35,4.32,4.34,9.85,5.07,12.35,5.4,2.1.28,9.97,1.04,17.2-4.05,1.11-.78,4.63-3.41,7.25-8.26,2.04-3.78,2.63-7.23,2.7-25.81.03-6.95-.05-6.86,0-13.33.07-7.99.1-11.98.28-16.36.2-4.82.55-9.65.34-14.47-.02-.49.15-1.09-.02-1.93-.21-1.06-.68-1.59-.44-1.89.22-.27.79-.05,1.62.09,1.13.18,1.71.02,2.92-.05,2.45-.15,9.95-.13,15.62.03,7.51.22,7.49.58,9.03.11.68-.21,1.81-.63,2.47-.09.75.62.27,1.98,0,4.34-.15,1.34-.07,3.36.09,7.4.1,2.56.27,4.16.37,5.44.41,5.15-.06,7.42-.29,14.64-.2,6.53.16,5.43,0,13.19-.15,7.23-.47,8.2-.49,13.71-.02,5.36.28,5.35.49,12.5.34,11.64-.39,13.46,0,22.65.07,1.68.3,6.32.2,9.96-.07,2.44-.24,2.86-.09,4.52.15,1.63.4,2.28-.01,2.81-.68.87-2.33.3-4.78,0-1.49-.19-.7.05-9.76.29-5.93.16-4.39.01-5.66.1-3.68.25-5.04.72-6.25-.2-.77-.58-1.03-1.75-1.56-4.1-.55-2.42-.78-4.78-1.66-8.2-.34-1.3-.51-1.76-.88-1.86-1.07-.28-2.23,2.78-4.88,5.57-1.71,1.79-3.26,2.66-5.97,4.17-8.93,4.99-17.94,6.04-17.94,6.04-.9.1-22.57,2.29-36.76-12.79-5.49-5.83-8.19-12.48-9.23-15.1ZM625.64,138.5c1.05-1.07,2.25-1.96,2.96-3.33.58-1.13,1.53-1.99,2.67-2.5,2.18-.96,2.41-1.5,1.27-4.26-2.1,3.64-5.47,6.17-6.9,10.09ZM692.79,112.07c1.71-2.45,3.22-4.62,4.77-6.83-3.1-.39-5.23,2.49-4.77,6.83ZM712.66,198.82c-1.33,1.74-1.87,3.89-3.33,5.73,3.67.12,4.25-.89,3.33-5.73ZM626.15,163.2c-2.05,1.88-2.97,4.55-4.82,6.56-.29.32,0,.81.34,1.08.39.3.67-.01.81-.32,1.11-2.49,3.07-4.55,3.67-7.32ZM691.25,155.39c.97-1.61,1.79-2.79,2.43-4.07.5-1,1.86-2.7,1.27-2.91-1.34-.49-1.59,1.41-2.26,2.31-.88,1.2-2.33,2.28-1.44,4.66ZM665.66,197.6c-.82.94-1.53,1.65-2.12,2.46-.27.37-1,.77-.45,1.37.4.43.87-.09,1.31-.13,2.67-.24,2.11-1.77,1.26-3.69ZM696.62,185.25c1.81-2.1,3.52-4.29,5.1-7.24-2.95,1.98-3.8,4.76-5.1,7.24ZM637.72,161.19c-.85,2.26-3.11,3.6-3.7,6.06,2.38-1.35,4.26-4.25,3.7-6.06ZM682.49,191.96c-1.84.68-1.54,2.69-2.74,3.58-.22.16-.53.8-.08,1.07.27.16.83.04,1.14-.15,1.7-1,1.49-2.71,1.67-4.5ZM619.94,120.84c-2.01.75-4.58,4.66-4.3,6.33,1.51-2.13,2.44-4.53,4.3-6.33ZM628.42,115.88c1.69-.9,2.55-1.84,3.43-2.76.4-.42.67-1.05.17-1.45-.64-.52-.94.25-1.22.63-.71.99-1.35,2.03-2.38,3.58Z"/>
    <path class="cls-1" d="M262.61,102.01c8.29.11,10-.27,11.28.15.27.09.49.2.73.34,1.52.87,2,2.25,3.17,5.33,1.63,4.29,2.43,6.19,2.99,8.95.05.22.05.31.11.51.28,1,1.2,2.43,8.25,17.72,7.34,15.93,11.07,24.05,13.77,31.36,3.23,8.72,4.84,13.08,5.53,16,1.03,4.37,1.31,7.15,2.27,7.22,1.38.11,2.36-5.57,6.02-16.39,1.35-3.99,2.84-7.82,5.81-15.49,2.52-6.49,4.61-11.61,5.81-14.52,2.48-6.04,2.66-6.27,5.53-13.27,3.4-8.29,5.11-12.43,5.25-13,0,0,1.24-4.75,5.41-13.48.14-.29.51-1.04,1.29-1.46.93-.49,1.92-.27,2.42-.17.63.13,2.31.11,5.67.09,2.36-.02,2.09-.26,6.41-.46,3.04-.14,1.32.07,3.62-.02,1.78-.07,2.56-.18,2.83.24.43.67-.75,2.15-.97,2.43-2.78,3.57-5.13,14.57-21.61,52.47-3.54,8.15-3.03,6.71-5.13,11.67-6.43,15.15-7.3,18.61-12.34,30.43-2.74,6.43-3.07,5.78-6.41,13.65-2.24,5.28-3.16,8.09-6.83,16.79-1.9,4.49-1.7,3.87-2.8,6.55-2.98,7.29-3.51,9.72-5.78,14.77-.87,1.95-2.23,4.79-4.16,8.16-3.08.01-5.58.23-7.29.43-2.22.26-4.01.58-6.83.66-3.17.1-4.77.13-5.39-.66-1.12-1.43.67-4.37,2.79-8.36,0,0,1.37-2.58,6.33-13.35,3.15-6.84,2.16-6.41,6.33-16.38,3.36-8.04,4.1-8.55,4.11-11.21,0-2.88-.85-4.93-5.24-13.61-3.49-6.9-4.2-8.07-5.68-11.03-2.67-5.33-4.75-10.64-8.92-21.25-3.78-9.63-3.62-9.78-5.68-14.44-2.25-5.1-2.77-5.68-6.33-13.46-1.55-3.41-1.02-2.34-5.52-12.49-1.75-3.94-3.24-8-5.19-11.84-2.89-5.68-4.65-7.84-3.7-9.22.78-1.14,2.64-.42,8.08-.35ZM296.26,174.75c.18.05.37.11.55.16,1.01-2.04,1.97-4.11,3.04-6.11.97-1.82.65-3.56-.01-5.35-.15-.41-.31-.81-.75-.8-.51.02-.5.54-.54.94-.17,1.72-.71,3.34-1.12,5.01-.49,2.02-.79,4.1-1.17,6.16ZM280.68,142.82c1.89-2.43,1.9-5.57,4.02-7.41.3-.26-.81-2.97-1.23-3.02-1.01-.12-1.13.89-1.27,1.51-.62,2.82-1.66,5.57-1.52,8.92ZM332,149.24c1.93-2,3.46-4.36,5.49-6.18.25-.22.4-.61.12-.89-.34-.35-.7-.14-1.01.14-1.1,1-1.62,3.05-3.66,2.39-.04-.01-.21.2-.21.3.08,1.46-.95,2.65-.74,4.24ZM300.46,208.73c.19.59.22.81.32.98.57.88.04,2.73.67,2.75,1.23.05,1.65-1.66,2.43-2.61.49-.6,1.16-1.44.43-2.72-.93,1.65-2.1,2.25-3.85,1.59ZM343.28,123.31c2.01-.87,2.72-2.97,4.27-4.05.2-.14.3-.56.06-.7-.24-.15-.61-.16-.9-.1-2.4.48-3.28,1.68-3.42,4.85ZM297.59,251.75c-1.86.34-3.14.86-4.28,1.76-.32.25-.68.52-.55.98.12.43.56.52.94.61,2.25.52,2.68-1.51,3.89-3.34ZM302.83,236.69c1.91-1.45,4.06-2.56,5.44-4.73.11-.17.08-.59-.04-.76-.26-.39-.55-.12-.79.12-1.66,1.64-3.36,3.25-4.61,5.37ZM310.71,221.91c2.41.37,2.97-1.34,3.77-2.68.14-.23.18-.56-.12-.69-.32-.14-.62-.03-.84.28-.72,1.04-1.52,2.01-2.8,3.09ZM350.55,108.88c1.19-.29,1.56-1.16,2.12-1.78.23-.25.36-.59.09-.92-.26-.3-.62-.24-.89-.1-.97.52-1.15,1.52-1.33,2.79ZM324.51,169.74c.89-.79,1.84-1.21,1.92-2.39.03-.44-.49-.45-.74-.31-.9.48-1.62,1.11-1.18,2.7Z"/>
    <path class="cls-1" d="M733.23,155.27c.78-4.2-.16-9.13.02-14.08.1-2.77-.47-5.61-.38-8.44.15-4.33.3-8.71.09-12.99-.17-3.43.09-6.87-.27-10.29-.31-2.89.24-5.78.08-8.68-.1-1.84,1.3-2.92,3.14-2.73,4.08.41,7.85-1.51,11.87-1.48.32,0,.66-.21.95-.38,1.01-.57,2.16-1.93,3.02-1.49,1.56.8,3.35,1.13,4.74,2.3.7.59.95,1.23.91,2.16-.26,6.89,0,13.78.4,20.66.28,5.03.4,10.06.4,15.1,0,2.86.61,5.72.93,8.59.08.75.26,1.54.13,2.26-.97,5.56-.3,11.14-.35,16.71-.07,6.64.4,13.26.42,19.9.01,4.34.49,8.69.26,13.01-.21,3.94.98,7.74.63,11.68-.3,3.45-1.65,4.75-5.03,3.77-2.8-.81-5.54-.1-8.22.26-1.88.25-3.35-.26-4.89-.9-1.17-.48-2.2-.53-3.38-.06-3.01,1.19-4.87-.48-5.11-3.67-.65-8.62.19-17.24-.32-25.86-.28-4.73-.34-9.5-.21-14.27.09-3.43.52-6.88.16-11.07ZM748.89,171.94c4.07-2.17,5.49-4.46,4.55-7.48-1.46,2.74-3.51,4.8-4.55,7.48ZM752.66,107.08c-1.41,2.75-2.63,5.15-3.86,7.54,1.92-2.06,5.33-3.35,3.86-7.54ZM749.72,146.2c.12.12.24.23.37.35,1.48-1.29,2.78-2.74,3.76-4.48.25-.44.56-.96.09-1.3-.59-.42-.83.27-1.07.62-1.07,1.59-2.1,3.2-3.14,4.81ZM738.44,190.43c.23.69-.47,1.99.53,1.87,1.06-.13,1.13-1.7,1.53-2.65.24-.57-.55-1.19-1.14-1.19-1.64,0-.36,1.42-.92,1.96ZM738.28,102.17c-.51.34-.74.47-.95.63-.9.72-.68,1.73-.67,2.67,0,.29.31.52.59.36.87-.52.92-1.45,1.02-2.33.04-.33,0-.67,0-1.33Z"/>
    <path class="cls-1" d="M1035.71,213.72c-5.59.08-10.29-1.5-13.1-6.85-.73-1.38-1.97-2.47-2.62-3.95-1.46-3.35-1.39-6.6.02-10.01,2.2-5.29,5.32-9.61,10.76-11.97,1.75-.76,3.82-.52,5.37-1.43,3.25-1.92,5.61-.24,8.28,1.26,3.44,1.93,6.62,4.01,8.29,7.77,3.8,8.51.59,17.93-7.58,22.33-2.95,1.59-5.99,2.85-9.43,2.85ZM1048.47,190.43c-.25-.8-1.18-1.15-1.71-1.85-.83-1.1-1.68-2.22-3.09-2.64-.76-.23-1.41,0-1.57.86-.14.75.4.83,1,.96,1.55.33,2.17,1.67,1.56,3.25-.25.64-.61,1.24-.82,1.88-.11.35-.2.84.4.97.81.18,4.25-2.51,4.23-3.44Z"/>
  </g>
</svg>